<svg xmlns="http://www.w3.org/2000/svg" xmlns:xlink="http://www.w3.org/1999/xlink" width="500" zoomAndPan="magnify" viewBox="0 0 375 374.999991" height="500" preserveAspectRatio="xMidYMid meet" version="1.0"><defs><g/><clipPath id="ef2d1d18df"><path d="M 37.5 146.707031 L 115 146.707031 L 115 228.457031 L 37.5 228.457031 Z M 37.5 146.707031 " clip-rule="nonzero"/></clipPath><clipPath id="868ab5f8c5"><path d="M 82.152344 184.714844 L 47.457031 184.714844 C 46.109375 184.714844 45.136719 183.429688 45.5 182.136719 L 55.027344 148.191406 C 55.273438 147.3125 56.070312 146.707031 56.980469 146.707031 L 91.675781 146.707031 C 93.023438 146.707031 93.996094 147.992188 93.632812 149.289062 L 84.109375 183.234375 C 83.863281 184.109375 83.0625 184.714844 82.152344 184.714844 Z M 59.617188 210.339844 L 64.519531 192.859375 C 64.886719 191.566406 63.910156 190.28125 62.566406 190.28125 L 44.730469 190.28125 C 43.820312 190.28125 43.019531 190.886719 42.773438 191.761719 L 37.871094 209.242188 C 37.507812 210.539062 38.480469 211.820312 39.828125 211.820312 L 57.660156 211.820312 C 58.570312 211.820312 59.371094 211.214844 59.617188 210.339844 Z M 68.640625 191.761719 L 59.117188 225.707031 C 58.753906 227.003906 59.726562 228.289062 61.074219 228.289062 L 95.769531 228.289062 C 96.679688 228.289062 97.476562 227.683594 97.722656 226.804688 L 107.25 192.859375 C 107.613281 191.566406 106.636719 190.28125 105.292969 190.28125 L 70.597656 190.28125 C 69.6875 190.28125 68.886719 190.886719 68.640625 191.761719 Z M 93.132812 164.65625 L 88.226562 182.136719 C 87.863281 183.429688 88.839844 184.714844 90.183594 184.714844 L 108.019531 184.714844 C 108.929688 184.714844 109.730469 184.109375 109.976562 183.234375 L 114.878906 165.753906 C 115.242188 164.460938 114.269531 163.175781 112.921875 163.175781 L 95.089844 163.175781 C 94.179688 163.175781 93.378906 163.78125 93.132812 164.65625 Z M 93.132812 164.65625 " clip-rule="nonzero"/></clipPath><linearGradient x1="114.29645" gradientTransform="matrix(0.163162, 0, 0, 0.163162, 37.793694, 146.707886)" y1="-47.633952" x2="358.621847" gradientUnits="userSpaceOnUse" y2="547.634012" id="87d9343e99"><stop stop-opacity="1" stop-color="rgb(13.699341%, 23.899841%, 100%)" offset="0"/><stop stop-opacity="1" stop-color="rgb(13.699341%, 23.899841%, 100%)" offset="0.0625"/><stop stop-opacity="1" stop-color="rgb(13.693237%, 24.01886%, 100%)" offset="0.09375"/><stop stop-opacity="1" stop-color="rgb(13.673401%, 24.464417%, 100%)" offset="0.0976562"/><stop stop-opacity="1" stop-color="rgb(13.659668%, 24.789429%, 100%)" offset="0.101562"/><stop stop-opacity="1" stop-color="rgb(13.645935%, 25.112915%, 100%)" offset="0.105469"/><stop stop-opacity="1" stop-color="rgb(13.632202%, 25.437927%, 100%)" offset="0.109375"/><stop stop-opacity="1" stop-color="rgb(13.616943%, 25.762939%, 100%)" offset="0.113281"/><stop stop-opacity="1" stop-color="rgb(13.60321%, 26.087952%, 100%)" offset="0.117188"/><stop stop-opacity="1" stop-color="rgb(13.587952%, 26.411438%, 100%)" offset="0.121094"/><stop stop-opacity="1" stop-color="rgb(13.574219%, 26.73645%, 100%)" offset="0.125"/><stop stop-opacity="1" stop-color="rgb(13.560486%, 27.061462%, 100%)" offset="0.128906"/><stop stop-opacity="1" stop-color="rgb(13.546753%, 27.386475%, 100%)" offset="0.132812"/><stop stop-opacity="1" stop-color="rgb(13.531494%, 27.709961%, 100%)" offset="0.136719"/><stop stop-opacity="1" stop-color="rgb(13.517761%, 28.034973%, 100%)" offset="0.140625"/><stop stop-opacity="1" stop-color="rgb(13.502502%, 28.359985%, 100%)" offset="0.144531"/><stop stop-opacity="1" stop-color="rgb(13.48877%, 28.684998%, 100%)" offset="0.148437"/><stop stop-opacity="1" stop-color="rgb(13.475037%, 29.008484%, 100%)" offset="0.152344"/><stop stop-opacity="1" stop-color="rgb(13.461304%, 29.333496%, 100%)" offset="0.15625"/><stop stop-opacity="1" stop-color="rgb(13.446045%, 29.658508%, 100%)" offset="0.160156"/><stop stop-opacity="1" stop-color="rgb(13.432312%, 29.983521%, 100%)" offset="0.164062"/><stop stop-opacity="1" stop-color="rgb(13.418579%, 30.307007%, 100%)" offset="0.167969"/><stop stop-opacity="1" stop-color="rgb(13.404846%, 30.632019%, 100%)" offset="0.171875"/><stop stop-opacity="1" stop-color="rgb(13.389587%, 30.957031%, 100%)" offset="0.175781"/><stop stop-opacity="1" stop-color="rgb(13.375854%, 31.282043%, 100%)" offset="0.179687"/><stop stop-opacity="1" stop-color="rgb(13.360596%, 31.60553%, 100%)" offset="0.183594"/><stop stop-opacity="1" stop-color="rgb(13.346863%, 31.930542%, 100%)" offset="0.1875"/><stop stop-opacity="1" stop-color="rgb(13.33313%, 32.255554%, 100%)" offset="0.191406"/><stop stop-opacity="1" stop-color="rgb(13.319397%, 32.580566%, 100%)" offset="0.195312"/><stop stop-opacity="1" stop-color="rgb(13.304138%, 32.904053%, 100%)" offset="0.199219"/><stop stop-opacity="1" stop-color="rgb(13.290405%, 33.229065%, 100%)" offset="0.203125"/><stop stop-opacity="1" stop-color="rgb(13.275146%, 33.554077%, 100%)" offset="0.207031"/><stop stop-opacity="1" stop-color="rgb(13.261414%, 33.879089%, 100%)" offset="0.210937"/><stop stop-opacity="1" stop-color="rgb(13.247681%, 34.204102%, 100%)" offset="0.214844"/><stop stop-opacity="1" stop-color="rgb(13.233948%, 34.529114%, 100%)" offset="0.21875"/><stop stop-opacity="1" stop-color="rgb(13.218689%, 34.8526%, 100%)" offset="0.222656"/><stop stop-opacity="1" stop-color="rgb(13.204956%, 35.177612%, 100%)" offset="0.226562"/><stop stop-opacity="1" stop-color="rgb(13.189697%, 35.502625%, 100%)" offset="0.230469"/><stop stop-opacity="1" stop-color="rgb(13.175964%, 35.827637%, 100%)" offset="0.234375"/><stop stop-opacity="1" stop-color="rgb(13.162231%, 36.151123%, 100%)" offset="0.238281"/><stop stop-opacity="1" stop-color="rgb(13.148499%, 36.476135%, 100%)" offset="0.242187"/><stop stop-opacity="1" stop-color="rgb(13.13324%, 36.801147%, 100%)" offset="0.246094"/><stop stop-opacity="1" stop-color="rgb(13.119507%, 37.12616%, 100%)" offset="0.25"/><stop stop-opacity="1" stop-color="rgb(13.104248%, 37.449646%, 100%)" offset="0.253906"/><stop stop-opacity="1" stop-color="rgb(13.090515%, 37.774658%, 100%)" offset="0.257812"/><stop stop-opacity="1" stop-color="rgb(13.076782%, 38.09967%, 100%)" offset="0.261719"/><stop stop-opacity="1" stop-color="rgb(13.063049%, 38.424683%, 100%)" offset="0.265625"/><stop stop-opacity="1" stop-color="rgb(13.047791%, 38.748169%, 100%)" offset="0.269531"/><stop stop-opacity="1" stop-color="rgb(13.034058%, 39.073181%, 100%)" offset="0.273438"/><stop stop-opacity="1" stop-color="rgb(13.018799%, 39.398193%, 100%)" offset="0.277344"/><stop stop-opacity="1" stop-color="rgb(13.005066%, 39.723206%, 100%)" offset="0.28125"/><stop stop-opacity="1" stop-color="rgb(12.991333%, 40.046692%, 100%)" offset="0.285156"/><stop stop-opacity="1" stop-color="rgb(12.9776%, 40.371704%, 100%)" offset="0.289062"/><stop stop-opacity="1" stop-color="rgb(12.962341%, 40.696716%, 100%)" offset="0.292969"/><stop stop-opacity="1" stop-color="rgb(12.948608%, 41.021729%, 100%)" offset="0.296875"/><stop stop-opacity="1" stop-color="rgb(12.93335%, 41.345215%, 100%)" offset="0.300781"/><stop stop-opacity="1" stop-color="rgb(12.919617%, 41.670227%, 100%)" offset="0.304688"/><stop stop-opacity="1" stop-color="rgb(12.905884%, 41.995239%, 100%)" offset="0.308594"/><stop stop-opacity="1" stop-color="rgb(12.892151%, 42.320251%, 100%)" offset="0.3125"/><stop stop-opacity="1" stop-color="rgb(12.876892%, 42.643738%, 100%)" offset="0.316406"/><stop stop-opacity="1" stop-color="rgb(12.863159%, 42.96875%, 100%)" offset="0.320312"/><stop stop-opacity="1" stop-color="rgb(12.8479%, 43.293762%, 100%)" offset="0.324219"/><stop stop-opacity="1" stop-color="rgb(12.834167%, 43.618774%, 100%)" offset="0.328125"/><stop stop-opacity="1" stop-color="rgb(12.820435%, 43.942261%, 100%)" offset="0.332031"/><stop stop-opacity="1" stop-color="rgb(12.806702%, 44.267273%, 100%)" offset="0.335938"/><stop stop-opacity="1" stop-color="rgb(12.791443%, 44.592285%, 100%)" offset="0.339844"/><stop stop-opacity="1" stop-color="rgb(12.77771%, 44.917297%, 100%)" offset="0.34375"/><stop stop-opacity="1" stop-color="rgb(12.763977%, 45.240784%, 100%)" offset="0.347656"/><stop stop-opacity="1" stop-color="rgb(12.750244%, 45.565796%, 100%)" offset="0.351562"/><stop stop-opacity="1" stop-color="rgb(12.734985%, 45.890808%, 100%)" offset="0.355469"/><stop stop-opacity="1" stop-color="rgb(12.721252%, 46.21582%, 100%)" offset="0.359375"/><stop stop-opacity="1" stop-color="rgb(12.705994%, 46.539307%, 100%)" offset="0.363281"/><stop stop-opacity="1" stop-color="rgb(12.692261%, 46.864319%, 100%)" offset="0.367188"/><stop stop-opacity="1" stop-color="rgb(12.678528%, 47.189331%, 100%)" offset="0.371094"/><stop stop-opacity="1" stop-color="rgb(12.664795%, 47.514343%, 100%)" offset="0.375"/><stop stop-opacity="1" stop-color="rgb(12.649536%, 47.83783%, 100%)" offset="0.378906"/><stop stop-opacity="1" stop-color="rgb(12.635803%, 48.162842%, 100%)" offset="0.382812"/><stop stop-opacity="1" stop-color="rgb(12.620544%, 48.487854%, 100%)" offset="0.386719"/><stop stop-opacity="1" stop-color="rgb(12.606812%, 48.812866%, 100%)" offset="0.390625"/><stop stop-opacity="1" stop-color="rgb(12.593079%, 49.136353%, 100%)" offset="0.394531"/><stop stop-opacity="1" stop-color="rgb(12.579346%, 49.461365%, 100%)" offset="0.398438"/><stop stop-opacity="1" stop-color="rgb(12.564087%, 49.786377%, 100%)" offset="0.402344"/><stop stop-opacity="1" stop-color="rgb(12.550354%, 50.111389%, 100%)" offset="0.40625"/><stop stop-opacity="1" stop-color="rgb(12.535095%, 50.436401%, 100%)" offset="0.410156"/><stop stop-opacity="1" stop-color="rgb(12.521362%, 50.761414%, 100%)" offset="0.414062"/><stop stop-opacity="1" stop-color="rgb(12.507629%, 51.0849%, 100%)" offset="0.417969"/><stop stop-opacity="1" stop-color="rgb(12.493896%, 51.409912%, 100%)" offset="0.421875"/><stop stop-opacity="1" stop-color="rgb(12.478638%, 51.734924%, 100%)" offset="0.425781"/><stop stop-opacity="1" stop-color="rgb(12.464905%, 52.059937%, 100%)" offset="0.429688"/><stop stop-opacity="1" stop-color="rgb(12.449646%, 52.383423%, 100%)" offset="0.433594"/><stop stop-opacity="1" stop-color="rgb(12.435913%, 52.708435%, 100%)" offset="0.4375"/><stop stop-opacity="1" stop-color="rgb(12.42218%, 53.033447%, 100%)" offset="0.441406"/><stop stop-opacity="1" stop-color="rgb(12.408447%, 53.358459%, 100%)" offset="0.445312"/><stop stop-opacity="1" stop-color="rgb(12.393188%, 53.681946%, 100%)" offset="0.449219"/><stop stop-opacity="1" stop-color="rgb(12.379456%, 54.006958%, 100%)" offset="0.453125"/><stop stop-opacity="1" stop-color="rgb(12.364197%, 54.33197%, 100%)" offset="0.457031"/><stop stop-opacity="1" stop-color="rgb(12.350464%, 54.656982%, 100%)" offset="0.460938"/><stop stop-opacity="1" stop-color="rgb(12.336731%, 54.980469%, 100%)" offset="0.464844"/><stop stop-opacity="1" stop-color="rgb(12.322998%, 55.305481%, 100%)" offset="0.46875"/><stop stop-opacity="1" stop-color="rgb(12.307739%, 55.630493%, 100%)" offset="0.472656"/><stop stop-opacity="1" stop-color="rgb(12.294006%, 55.955505%, 100%)" offset="0.476562"/><stop stop-opacity="1" stop-color="rgb(12.278748%, 56.278992%, 100%)" offset="0.480469"/><stop stop-opacity="1" stop-color="rgb(12.265015%, 56.604004%, 100%)" offset="0.484375"/><stop stop-opacity="1" stop-color="rgb(12.251282%, 56.929016%, 100%)" offset="0.488281"/><stop stop-opacity="1" stop-color="rgb(12.237549%, 57.254028%, 100%)" offset="0.492188"/><stop stop-opacity="1" stop-color="rgb(12.22229%, 57.577515%, 100%)" offset="0.496094"/><stop stop-opacity="1" stop-color="rgb(12.208557%, 57.902527%, 100%)" offset="0.5"/><stop stop-opacity="1" stop-color="rgb(12.194824%, 58.227539%, 100%)" offset="0.503906"/><stop stop-opacity="1" stop-color="rgb(12.181091%, 58.552551%, 100%)" offset="0.507812"/><stop stop-opacity="1" stop-color="rgb(12.165833%, 58.876038%, 100%)" offset="0.511719"/><stop stop-opacity="1" stop-color="rgb(12.1521%, 59.20105%, 100%)" offset="0.515625"/><stop stop-opacity="1" stop-color="rgb(12.136841%, 59.526062%, 100%)" offset="0.519531"/><stop stop-opacity="1" stop-color="rgb(12.123108%, 59.851074%, 100%)" offset="0.523438"/><stop stop-opacity="1" stop-color="rgb(12.109375%, 60.174561%, 100%)" offset="0.527344"/><stop stop-opacity="1" stop-color="rgb(12.095642%, 60.499573%, 100%)" offset="0.53125"/><stop stop-opacity="1" stop-color="rgb(12.080383%, 60.824585%, 100%)" offset="0.535156"/><stop stop-opacity="1" stop-color="rgb(12.06665%, 61.149597%, 100%)" offset="0.539062"/><stop stop-opacity="1" stop-color="rgb(12.051392%, 61.473083%, 100%)" offset="0.542969"/><stop stop-opacity="1" stop-color="rgb(12.037659%, 61.798096%, 100%)" offset="0.546875"/><stop stop-opacity="1" stop-color="rgb(12.023926%, 62.123108%, 100%)" offset="0.550781"/><stop stop-opacity="1" stop-color="rgb(12.010193%, 62.44812%, 100%)" offset="0.554688"/><stop stop-opacity="1" stop-color="rgb(11.994934%, 62.771606%, 100%)" offset="0.558594"/><stop stop-opacity="1" stop-color="rgb(11.981201%, 63.096619%, 100%)" offset="0.5625"/><stop stop-opacity="1" stop-color="rgb(11.965942%, 63.421631%, 100%)" offset="0.566406"/><stop stop-opacity="1" stop-color="rgb(11.952209%, 63.746643%, 100%)" offset="0.570312"/><stop stop-opacity="1" stop-color="rgb(11.938477%, 64.070129%, 100%)" offset="0.574219"/><stop stop-opacity="1" stop-color="rgb(11.924744%, 64.395142%, 100%)" offset="0.578125"/><stop stop-opacity="1" stop-color="rgb(11.909485%, 64.720154%, 100%)" offset="0.582031"/><stop stop-opacity="1" stop-color="rgb(11.895752%, 65.045166%, 100%)" offset="0.585938"/><stop stop-opacity="1" stop-color="rgb(11.880493%, 65.368652%, 100%)" offset="0.589844"/><stop stop-opacity="1" stop-color="rgb(11.86676%, 65.693665%, 100%)" offset="0.59375"/><stop stop-opacity="1" stop-color="rgb(11.853027%, 66.018677%, 100%)" offset="0.597656"/><stop stop-opacity="1" stop-color="rgb(11.839294%, 66.343689%, 100%)" offset="0.601562"/><stop stop-opacity="1" stop-color="rgb(11.824036%, 66.667175%, 100%)" offset="0.605469"/><stop stop-opacity="1" stop-color="rgb(11.810303%, 66.992188%, 100%)" offset="0.609375"/><stop stop-opacity="1" stop-color="rgb(11.795044%, 67.3172%, 100%)" offset="0.613281"/><stop stop-opacity="1" stop-color="rgb(11.781311%, 67.642212%, 100%)" offset="0.617188"/><stop stop-opacity="1" stop-color="rgb(11.767578%, 67.967224%, 100%)" offset="0.621094"/><stop stop-opacity="1" stop-color="rgb(11.753845%, 68.292236%, 100%)" offset="0.625"/><stop stop-opacity="1" stop-color="rgb(11.738586%, 68.615723%, 100%)" offset="0.628906"/><stop stop-opacity="1" stop-color="rgb(11.724854%, 68.940735%, 100%)" offset="0.632812"/><stop stop-opacity="1" stop-color="rgb(11.709595%, 69.265747%, 100%)" offset="0.636719"/><stop stop-opacity="1" stop-color="rgb(11.695862%, 69.590759%, 100%)" offset="0.640625"/><stop stop-opacity="1" stop-color="rgb(11.682129%, 69.914246%, 100%)" offset="0.644531"/><stop stop-opacity="1" stop-color="rgb(11.668396%, 70.239258%, 100%)" offset="0.648438"/><stop stop-opacity="1" stop-color="rgb(11.653137%, 70.56427%, 100%)" offset="0.652344"/><stop stop-opacity="1" stop-color="rgb(11.639404%, 70.889282%, 100%)" offset="0.65625"/><stop stop-opacity="1" stop-color="rgb(11.625671%, 71.212769%, 100%)" offset="0.660156"/><stop stop-opacity="1" stop-color="rgb(11.611938%, 71.537781%, 100%)" offset="0.664062"/><stop stop-opacity="1" stop-color="rgb(11.59668%, 71.862793%, 100%)" offset="0.667969"/><stop stop-opacity="1" stop-color="rgb(11.582947%, 72.187805%, 100%)" offset="0.671875"/><stop stop-opacity="1" stop-color="rgb(11.567688%, 72.511292%, 100%)" offset="0.675781"/><stop stop-opacity="1" stop-color="rgb(11.553955%, 72.836304%, 100%)" offset="0.679688"/><stop stop-opacity="1" stop-color="rgb(11.540222%, 73.161316%, 100%)" offset="0.683594"/><stop stop-opacity="1" stop-color="rgb(11.526489%, 73.486328%, 100%)" offset="0.6875"/><stop stop-opacity="1" stop-color="rgb(11.51123%, 73.809814%, 100%)" offset="0.691406"/><stop stop-opacity="1" stop-color="rgb(11.497498%, 74.134827%, 100%)" offset="0.695312"/><stop stop-opacity="1" stop-color="rgb(11.482239%, 74.459839%, 100%)" offset="0.699219"/><stop stop-opacity="1" stop-color="rgb(11.468506%, 74.784851%, 100%)" offset="0.703125"/><stop stop-opacity="1" stop-color="rgb(11.454773%, 75.108337%, 100%)" offset="0.707031"/><stop stop-opacity="1" stop-color="rgb(11.44104%, 75.43335%, 100%)" offset="0.710938"/><stop stop-opacity="1" stop-color="rgb(11.425781%, 75.758362%, 100%)" offset="0.714844"/><stop stop-opacity="1" stop-color="rgb(11.412048%, 76.083374%, 100%)" offset="0.71875"/><stop stop-opacity="1" stop-color="rgb(11.39679%, 76.40686%, 100%)" offset="0.722656"/><stop stop-opacity="1" stop-color="rgb(11.383057%, 76.731873%, 100%)" offset="0.726562"/><stop stop-opacity="1" stop-color="rgb(11.369324%, 77.056885%, 100%)" offset="0.730469"/><stop stop-opacity="1" stop-color="rgb(11.355591%, 77.381897%, 100%)" offset="0.734375"/><stop stop-opacity="1" stop-color="rgb(11.340332%, 77.705383%, 100%)" offset="0.738281"/><stop stop-opacity="1" stop-color="rgb(11.326599%, 78.030396%, 100%)" offset="0.742188"/><stop stop-opacity="1" stop-color="rgb(11.31134%, 78.355408%, 100%)" offset="0.746094"/><stop stop-opacity="1" stop-color="rgb(11.297607%, 78.68042%, 100%)" offset="0.75"/><stop stop-opacity="1" stop-color="rgb(11.283875%, 79.003906%, 100%)" offset="0.753906"/><stop stop-opacity="1" stop-color="rgb(11.270142%, 79.328918%, 100%)" offset="0.757812"/><stop stop-opacity="1" stop-color="rgb(11.254883%, 79.653931%, 100%)" offset="0.761719"/><stop stop-opacity="1" stop-color="rgb(11.24115%, 79.978943%, 100%)" offset="0.765625"/><stop stop-opacity="1" stop-color="rgb(11.225891%, 80.302429%, 100%)" offset="0.769531"/><stop stop-opacity="1" stop-color="rgb(11.212158%, 80.627441%, 100%)" offset="0.773438"/><stop stop-opacity="1" stop-color="rgb(11.198425%, 80.952454%, 100%)" offset="0.777344"/><stop stop-opacity="1" stop-color="rgb(11.184692%, 81.277466%, 100%)" offset="0.78125"/><stop stop-opacity="1" stop-color="rgb(11.169434%, 81.600952%, 100%)" offset="0.785156"/><stop stop-opacity="1" stop-color="rgb(11.155701%, 81.925964%, 100%)" offset="0.789062"/><stop stop-opacity="1" stop-color="rgb(11.140442%, 82.250977%, 100%)" offset="0.792969"/><stop stop-opacity="1" stop-color="rgb(11.126709%, 82.575989%, 100%)" offset="0.796875"/><stop stop-opacity="1" stop-color="rgb(11.112976%, 82.899475%, 100%)" offset="0.800781"/><stop stop-opacity="1" stop-color="rgb(11.099243%, 83.224487%, 100%)" offset="0.804687"/><stop stop-opacity="1" stop-color="rgb(11.083984%, 83.5495%, 100%)" offset="0.808594"/><stop stop-opacity="1" stop-color="rgb(11.070251%, 83.874512%, 100%)" offset="0.8125"/><stop stop-opacity="1" stop-color="rgb(11.054993%, 84.199524%, 100%)" offset="0.816406"/><stop stop-opacity="1" stop-color="rgb(11.04126%, 84.524536%, 100%)" offset="0.820312"/><stop stop-opacity="1" stop-color="rgb(11.027527%, 84.848022%, 100%)" offset="0.824219"/><stop stop-opacity="1" stop-color="rgb(11.013794%, 85.173035%, 100%)" offset="0.828125"/><stop stop-opacity="1" stop-color="rgb(11.006165%, 85.336304%, 100%)" offset="0.84375"/><stop stop-opacity="1" stop-color="rgb(10.998535%, 85.499573%, 100%)" offset="0.875"/><stop stop-opacity="1" stop-color="rgb(10.998535%, 85.499573%, 100%)" offset="1"/></linearGradient></defs><g clip-path="url(#ef2d1d18df)"><g clip-path="url(#868ab5f8c5)"><path fill="url(#87d9343e99)" d="M 37.507812 146.707031 L 37.507812 228.289062 L 115.242188 228.289062 L 115.242188 146.707031 Z M 37.507812 146.707031 " fill-rule="nonzero"/></g></g><path stroke-linecap="butt" transform="matrix(0.75, 0, 0, 0.75, 131.653093, 162.374989)" fill="none" stroke-linejoin="miter" d="M 9.868794 37.322933 C 9.868794 38.682308 10.31671 39.7396 11.212544 40.494809 C 12.108377 41.244809 13.066711 41.619809 14.077127 41.619809 C 15.087544 41.619809 16.030253 41.328142 16.910461 40.7396 C 17.795878 40.14585 18.509419 39.848975 19.061503 39.848975 C 20.025044 39.848975 21.191711 40.697934 22.57192 42.39585 C 23.311503 43.328142 23.676086 44.161475 23.676086 44.901059 C 23.676086 46.114601 22.795878 47.255226 21.035461 48.317726 C 19.202128 49.598976 16.957336 50.234393 14.301086 50.234393 C 11.316711 50.234393 8.44171 49.161476 5.676085 47.015642 C 4.358377 45.989601 3.280252 44.619809 2.44171 42.901059 C 1.613585 41.187517 1.196918 39.296892 1.196918 37.229183 C 1.196918 35.151058 1.613585 33.27085 2.44171 31.588558 C 3.280252 29.901058 4.358377 28.546891 5.676085 27.520849 C 8.337544 25.406266 11.176086 24.348974 14.196919 24.348974 C 15.415669 24.348974 16.603169 24.515641 17.754211 24.854183 C 18.915669 25.192724 19.769836 25.520849 20.316711 25.838558 L 21.082336 26.322933 C 21.660461 26.708349 22.108378 27.010433 22.431295 27.239599 C 23.264628 27.880224 23.676086 28.609391 23.676086 29.427099 C 23.676086 30.2396 23.342753 31.161475 22.66567 32.187516 C 21.514628 33.95835 20.410461 34.843767 19.353169 34.843767 C 18.743794 34.843767 17.874003 34.4896 16.743794 33.786475 C 16.170878 33.234391 15.347961 32.963558 14.264627 32.963558 C 13.191711 32.963558 12.191711 33.348975 11.259419 34.125016 C 10.332335 34.890642 9.868794 35.95835 9.868794 37.322933 Z M 26.077128 37.343767 C 26.077128 33.4896 27.426087 30.312516 30.118795 27.812516 C 32.82192 25.307308 35.905254 24.057307 39.368796 24.057307 C 42.832338 24.057307 45.894838 25.302099 48.556296 27.791683 C 51.222963 30.276058 52.551088 33.442725 52.551088 37.296892 C 52.551088 39.963559 51.863588 42.328142 50.48338 44.39585 C 49.10838 46.463559 47.431296 47.984392 45.457338 48.963559 C 43.483379 49.942726 41.431296 50.432309 39.311504 50.432309 C 37.196921 50.432309 35.144837 49.911476 33.155254 48.869809 C 31.170879 47.828142 29.493795 46.291684 28.124003 44.255225 C 26.75942 42.20835 26.077128 39.906267 26.077128 37.343767 Z M 36.139629 40.786475 C 37.170879 41.572934 38.217754 41.963559 39.275046 41.963559 C 40.332337 41.963559 41.389629 41.562517 42.446921 40.765642 C 43.504213 39.95835 44.035463 38.77085 44.035463 37.203142 C 44.035463 35.630225 43.535463 34.45835 42.540671 33.692725 C 41.545879 32.916683 40.467754 32.526058 39.311504 32.526058 C 38.160462 32.526058 37.087546 32.932308 36.092754 33.7396 C 35.097962 34.536475 34.597962 35.713558 34.597962 37.276058 C 34.597962 38.822933 35.113587 39.994809 36.139629 40.786475 Z M 72.686506 14.07814 C 72.92609 13.60939 73.353173 13.281265 73.967756 13.093765 C 74.577131 12.895848 75.389631 12.79689 76.400048 12.79689 C 77.410465 12.79689 78.217757 12.895848 78.83234 13.093765 C 79.441715 13.281265 79.86359 13.614598 80.097965 14.104182 C 80.342757 14.57814 80.48859 15.005224 80.535465 15.369807 C 80.587548 15.739599 80.618798 16.291682 80.618798 17.026057 L 80.618798 45.770851 C 80.618798 46.505226 80.587548 47.057309 80.535465 47.427101 C 80.48859 47.796892 80.337548 48.203142 80.087548 48.651059 C 79.603173 49.515642 78.243798 49.953142 76.009423 49.953142 C 73.785465 49.953142 72.545881 49.166684 72.285465 47.588559 C 70.936506 49.135434 69.061506 49.906267 66.655256 49.906267 C 63.764631 49.906267 61.134422 48.651059 58.759422 46.135434 C 56.38963 43.609392 55.20213 40.671892 55.20213 37.322933 C 55.20213 33.968766 56.394838 31.026058 58.785464 28.494808 C 61.176089 25.958349 63.795881 24.687516 66.655256 24.687516 C 69.030256 24.687516 70.874006 25.489599 72.191715 27.088558 L 72.191715 16.979182 C 72.191715 16.244807 72.217756 15.692724 72.264631 15.322932 C 72.311506 14.958349 72.452131 14.541682 72.686506 14.07814 Z M 64.874006 40.234392 C 65.707339 41.098975 66.722964 41.526059 67.905256 41.526059 C 69.092756 41.526059 70.082339 41.098975 70.863589 40.234392 C 71.650048 39.3646 72.040673 38.411475 72.040673 37.369808 C 72.040673 36.328142 71.665673 35.354183 70.910464 34.453141 C 70.160464 33.5521 69.139631 33.104183 67.858381 33.104183 C 66.571922 33.104183 65.545881 33.546891 64.775047 34.432308 C 64.009422 35.317725 63.624006 36.286475 63.624006 37.343767 C 63.624006 38.401058 64.040672 39.3646 64.874006 40.234392 Z M 108.915675 34.291683 C 108.915675 36.265642 108.426092 37.723975 107.446925 38.671892 C 106.467758 39.6146 105.379217 40.08335 104.191717 40.08335 L 92.780258 40.08335 C 92.780258 40.984392 93.311508 41.7396 94.368799 42.348975 C 95.431299 42.963559 96.493799 43.265642 97.551091 43.265642 C 99.415675 43.265642 100.879216 43.072934 101.936508 42.6771 L 102.46255 42.4896 C 103.233383 42.140642 103.874008 41.963559 104.389633 41.963559 C 105.415675 41.963559 106.295883 42.682309 107.035467 44.125017 C 107.446925 44.994809 107.655259 45.734392 107.655259 46.343767 C 107.655259 49.197934 104.2438 50.625018 97.410466 50.625018 C 95.035466 50.625018 92.926091 50.213559 91.077132 49.401059 C 89.238591 48.578142 87.801091 47.494809 86.764632 46.145851 C 84.743799 43.5521 83.733382 40.651059 83.733382 37.437517 C 83.733382 33.39585 85.040674 30.166683 87.655257 27.744808 C 90.275049 25.317724 93.540674 24.104182 97.457341 24.104182 C 101.915675 24.104182 105.186508 25.677099 107.269842 28.828141 C 108.363592 30.494808 108.915675 32.317725 108.915675 34.291683 Z M 98.749008 35.697933 C 99.972966 35.697933 100.582341 35.187517 100.582341 34.161475 C 100.582341 33.421891 100.301091 32.83335 99.738591 32.385433 C 99.1813 31.937516 98.379216 31.718766 97.327133 31.718766 C 96.285466 31.718766 95.254216 32.140641 94.228174 32.994808 C 93.202133 33.843766 92.686508 34.744808 92.686508 35.697933 Z M 98.749008 35.697933 " stroke="#000000" stroke-width="3.610297" stroke-opacity="1" stroke-miterlimit="4"/><path stroke-linecap="butt" transform="matrix(0.75, 0, 0, 0.75, 131.653093, 162.374989)" fill="none" stroke-linejoin="miter" d="M 137.176094 31.08335 C 139.071927 33.328141 140.019844 35.848975 140.019844 38.635433 C 139.946927 41.848975 138.847969 44.541684 136.71776 46.708351 C 134.587552 48.869809 131.99901 49.953142 128.946927 49.953142 L 116.280259 49.953142 C 114.040676 49.953142 112.728176 49.343767 112.332342 48.119809 C 112.144842 47.578142 112.051092 46.744809 112.051092 45.614601 L 112.051092 18.906265 C 112.051092 18.14064 112.077134 17.57814 112.124009 17.229182 C 112.170884 16.875015 112.321926 16.458349 112.582342 15.968765 C 113.025051 15.10939 114.275051 14.677099 116.327134 14.677099 L 128.46776 14.677099 C 131.410468 14.677099 133.879219 15.70314 135.868802 17.755224 C 137.962552 19.838557 139.009427 22.343766 139.009427 25.265641 C 139.009427 27.380224 138.394844 29.317724 137.176094 31.08335 Z M 131.49901 38.156267 C 131.49901 37.385433 131.410468 36.781267 131.228177 36.33335 C 131.056302 35.880225 130.759427 35.557308 130.337552 35.369808 C 129.691718 35.1146 128.790677 34.984392 127.634427 34.984392 C 126.483385 34.984392 125.613593 34.760433 125.035468 34.312516 C 124.462551 33.859391 124.176093 32.932308 124.176093 31.541683 C 124.176093 30.14585 124.478176 29.223974 125.071926 28.776058 C 125.665676 28.322933 126.65526 28.098974 128.03026 28.098974 C 129.316718 28.098974 130.087552 27.760433 130.337552 27.088558 C 130.43651 26.734391 130.488593 26.156266 130.488593 25.359391 C 130.488593 24.552099 130.222968 23.994807 129.691718 23.677099 C 129.15526 23.359391 128.363593 23.197932 127.306301 23.197932 L 120.571926 23.197932 L 120.571926 41.432309 L 128.46776 41.432309 C 130.488593 41.432309 131.49901 40.338559 131.49901 38.156267 Z M 167.592762 34.291683 C 167.592762 36.265642 167.103179 37.723975 166.124012 38.671892 C 165.144846 39.6146 164.061512 40.08335 162.868804 40.08335 L 151.462553 40.08335 C 151.462553 40.984392 151.988595 41.7396 153.045887 42.348975 C 154.113595 42.963559 155.170887 43.265642 156.233387 43.265642 C 158.092762 43.265642 159.556304 43.072934 160.613595 42.6771 L 161.144845 42.4896 C 161.91047 42.140642 162.551095 41.963559 163.071929 41.963559 C 164.097971 41.963559 164.978179 42.682309 165.712554 44.125017 C 166.129221 44.994809 166.337554 45.734392 166.337554 46.343767 C 166.337554 49.197934 162.920887 50.625018 156.087553 50.625018 C 153.717762 50.625018 151.603178 50.213559 149.75422 49.401059 C 147.915678 48.578142 146.478178 47.494809 145.441719 46.145851 C 143.420886 43.5521 142.410469 40.651059 142.410469 37.437517 C 142.410469 33.39585 143.722969 30.166683 146.337553 27.744808 C 148.952136 25.317724 152.217761 24.104182 156.134428 24.104182 C 160.592762 24.104182 163.863596 25.677099 165.946929 28.828141 C 167.045887 30.494808 167.592762 32.317725 167.592762 34.291683 Z M 157.431303 35.697933 C 158.650054 35.697933 159.264637 35.187517 159.264637 34.161475 C 159.264637 33.421891 158.978179 32.83335 158.415679 32.385433 C 157.858387 31.937516 157.056303 31.718766 156.009428 31.718766 C 154.967762 31.718766 153.931303 32.140641 152.905262 32.994808 C 151.87922 33.843766 151.363595 34.744808 151.363595 35.697933 Z M 184.816722 24.630224 C 188.030264 24.630224 190.702139 25.859391 192.832347 28.322933 C 194.962556 30.77085 196.025056 33.765641 196.025056 37.296892 L 196.025056 45.770851 C 196.025056 46.505226 196.004223 47.057309 195.957348 47.427101 C 195.910473 47.796892 195.775056 48.203142 195.545889 48.651059 C 195.097973 49.515642 193.847973 49.953142 191.795889 49.953142 C 189.519847 49.953142 188.202139 49.359392 187.847972 48.166684 C 187.655264 47.625017 187.556305 46.807309 187.556305 45.713559 L 187.556305 37.250017 C 187.556305 35.932308 187.181305 34.906267 186.426097 34.171891 C 185.676097 33.4271 184.66568 33.057308 183.394847 33.057308 C 182.124013 33.057308 181.097972 33.442725 180.316722 34.218766 C 179.535472 34.984392 179.139638 35.994808 179.139638 37.250017 L 179.139638 45.770851 C 179.139638 46.505226 179.113597 47.057309 179.061513 47.427101 C 179.014638 47.796892 178.863597 48.203142 178.613597 48.651059 C 178.191721 49.515642 176.952138 49.953142 174.900055 49.953142 C 172.879221 49.953142 171.644846 49.515642 171.196929 48.651059 C 170.972971 48.171892 170.832346 47.750017 170.785471 47.380226 C 170.738596 47.010434 170.717763 46.453142 170.717763 45.713559 L 170.717763 28.671891 C 170.717763 27.968766 170.738596 27.432308 170.785471 27.062516 C 170.832346 26.692724 170.988596 26.286474 171.243804 25.838558 C 171.691721 25.036474 172.926096 24.630224 174.94693 24.630224 C 176.905263 24.630224 178.108388 25.005224 178.556305 25.744808 C 178.874013 26.286474 179.035472 26.947933 179.035472 27.718766 C 179.170888 27.494808 179.457347 27.171891 179.905263 26.755224 C 180.358388 26.333349 180.795888 26.000016 181.207347 25.744808 C 182.301097 25.005224 183.499014 24.630224 184.816722 24.630224 Z M 215.957349 46.828142 C 214.733391 48.427101 212.790682 49.223976 210.129224 49.223976 C 207.462557 49.223976 204.967765 48.000017 202.63964 45.546892 C 200.316723 43.093767 199.150056 40.229184 199.150056 36.95835 C 199.150056 33.682308 200.321931 30.812516 202.665681 28.343766 C 205.009432 25.869808 207.57714 24.630224 210.374015 24.630224 C 211.462557 24.630224 212.45214 24.833349 213.347974 25.239599 C 214.249016 25.640641 214.863599 26.010433 215.202141 26.343766 C 215.540682 26.682308 215.806307 26.994808 216.004224 27.286474 C 216.097974 26.385433 216.426099 25.703141 216.988599 25.239599 C 217.551099 24.770849 218.457349 24.536474 219.702141 24.536474 C 220.957349 24.536474 221.874016 24.635433 222.452141 24.828141 C 223.030266 25.020849 223.441724 25.348974 223.676099 25.817724 C 223.915683 26.281266 224.061516 26.687516 224.108391 27.041683 C 224.155266 27.390641 224.181308 27.937516 224.181308 28.671891 L 224.181308 48.604184 C 224.181308 52.291684 222.894849 55.265643 220.327141 57.531268 C 217.764641 59.796893 214.879224 60.927102 211.665682 60.927102 C 209.228182 60.927102 206.905265 60.333352 204.686515 59.140643 C 202.478181 57.958351 201.374015 56.885435 201.374015 55.921893 C 201.374015 54.666684 201.853181 53.562518 202.816723 52.598976 C 203.431306 51.921893 203.905265 51.458351 204.238598 51.197934 C 204.57714 50.947934 204.967765 50.822934 205.415682 50.822934 C 205.863598 50.822934 206.32714 51.015643 206.811515 51.395851 C 208.347973 52.583351 210.01464 53.171893 211.816724 53.171893 C 213.035474 53.171893 214.025057 52.692726 214.790682 51.729184 C 215.566724 50.770851 215.957349 49.619809 215.957349 48.270851 Z M 207.38964 36.979183 C 207.38964 38.02085 207.79589 38.963558 208.60839 39.8021 C 209.431307 40.630225 210.426099 41.046892 211.597974 41.046892 C 212.769849 41.046892 213.743807 40.625017 214.509432 39.776058 C 215.275057 38.921892 215.660474 37.9896 215.660474 36.979183 C 215.660474 35.968767 215.290682 35.026058 214.556307 34.151058 C 213.821932 33.265641 212.82714 32.822933 211.571932 32.822933 C 210.316724 32.822933 209.306307 33.255225 208.540682 34.125016 C 207.775057 34.984392 207.38964 35.937517 207.38964 36.979183 Z M 244.493809 27.333349 C 244.681309 25.531266 245.946934 24.630224 248.290684 24.630224 C 249.545893 24.630224 250.478185 24.729183 251.08756 24.921891 C 251.696935 25.119808 252.124018 25.458349 252.358393 25.937516 C 252.597976 26.411474 252.74381 26.838558 252.790685 27.213558 C 252.83756 27.583349 252.863601 28.135433 252.863601 28.875016 L 252.863601 45.713559 C 252.863601 46.453142 252.83756 47.010434 252.790685 47.380226 C 252.74381 47.750017 252.608393 48.171892 252.379226 48.651059 C 251.93131 49.484392 250.83756 49.906267 249.092768 49.906267 C 247.342768 49.906267 246.170893 49.692726 245.577143 49.260434 C 244.983393 48.822934 244.634434 48.187517 244.540684 47.354184 C 243.353184 49.057309 241.368809 49.906267 238.597975 49.906267 C 235.821934 49.906267 233.249017 48.640642 230.8636 46.109392 C 228.493808 43.572934 227.306308 40.625017 227.306308 37.276058 C 227.306308 33.921891 228.499016 30.9896 230.889642 28.473974 C 233.285475 25.953141 235.910475 24.687516 238.759434 24.687516 C 239.858392 24.687516 240.853184 24.880224 241.743809 25.265641 C 242.644851 25.651058 243.275059 26.010433 243.624017 26.343766 C 243.978184 26.682308 244.269851 27.010433 244.493809 27.333349 Z M 235.728184 37.343767 C 235.728184 38.401058 236.14485 39.359392 236.972975 40.213559 C 237.811517 41.057309 238.821934 41.479184 240.009434 41.479184 C 241.196934 41.479184 242.186517 41.0521 242.967767 40.187517 C 243.759434 39.317725 244.155267 38.3646 244.155267 37.322933 C 244.155267 36.281267 243.775059 35.307308 243.014642 34.406266 C 242.264642 33.505225 241.254226 33.057308 239.983392 33.057308 C 238.722975 33.057308 237.696934 33.505225 236.905267 34.406266 C 236.124017 35.307308 235.728184 36.286475 235.728184 37.343767 Z M 265.233394 42.880225 L 278.327145 42.880225 C 279.384436 42.880225 280.150062 43.000017 280.629228 43.244809 C 281.113603 43.479184 281.43652 43.854184 281.59277 44.369809 C 281.754228 44.880225 281.837562 45.562517 281.837562 46.416684 C 281.837562 47.260434 281.754228 47.942726 281.59277 48.458351 C 281.43652 48.968767 281.165687 49.322934 280.78027 49.515642 C 280.170895 49.838559 279.337561 50.000018 278.28027 50.000018 L 260.946935 50.000018 C 258.707352 50.000018 257.389643 49.390642 256.999018 48.166684 C 256.811518 47.656267 256.717768 46.838559 256.717768 45.713559 L 256.717768 18.95314 C 256.717768 18.218765 256.738602 17.666682 256.785477 17.29689 C 256.832352 16.932307 256.988602 16.505224 257.24381 16.01564 C 257.691727 15.156265 258.941727 14.723974 260.99381 14.723974 C 263.24381 14.723974 264.571936 15.317724 264.988602 16.500015 C 265.155269 17.04689 265.233394 17.880224 265.233394 19.000015 Z M 265.233394 42.880225 " stroke="#000000" stroke-width="3.610297" stroke-opacity="1" stroke-miterlimit="4"/><g fill="#ffffff" fill-opacity="1"><g transform="translate(131.653093, 199.874987)"><g><path d="M 7.40625 -9.515625 C 7.40625 -8.492188 7.738281 -7.695312 8.40625 -7.125 C 9.082031 -6.5625 9.796875 -6.28125 10.546875 -6.28125 C 11.304688 -6.28125 12.015625 -6.5 12.671875 -6.9375 C 13.335938 -7.382812 13.878906 -7.609375 14.296875 -7.609375 C 15.015625 -7.609375 15.890625 -6.972656 16.921875 -5.703125 C 17.484375 -5.003906 17.765625 -4.378906 17.765625 -3.828125 C 17.765625 -2.910156 17.097656 -2.054688 15.765625 -1.265625 C 14.398438 -0.296875 12.71875 0.1875 10.71875 0.1875 C 8.476562 0.1875 6.328125 -0.617188 4.265625 -2.234375 C 3.273438 -3.003906 2.46875 -4.03125 1.84375 -5.3125 C 1.21875 -6.601562 0.90625 -8.023438 0.90625 -9.578125 C 0.90625 -11.128906 1.21875 -12.535156 1.84375 -13.796875 C 2.46875 -15.066406 3.273438 -16.085938 4.265625 -16.859375 C 6.253906 -18.441406 8.378906 -19.234375 10.640625 -19.234375 C 11.554688 -19.234375 12.445312 -19.109375 13.3125 -18.859375 C 14.1875 -18.609375 14.828125 -18.363281 15.234375 -18.125 L 15.8125 -17.765625 C 16.238281 -17.472656 16.570312 -17.242188 16.8125 -17.078125 C 17.445312 -16.585938 17.765625 -16.035156 17.765625 -15.421875 C 17.765625 -14.816406 17.507812 -14.128906 17 -13.359375 C 16.132812 -12.035156 15.304688 -11.375 14.515625 -11.375 C 14.054688 -11.375 13.40625 -11.632812 12.5625 -12.15625 C 12.125 -12.570312 11.503906 -12.78125 10.703125 -12.78125 C 9.898438 -12.78125 9.148438 -12.488281 8.453125 -11.90625 C 7.753906 -11.332031 7.40625 -10.535156 7.40625 -9.515625 Z M 7.40625 -9.515625 "/></g></g></g><g fill="#ffffff" fill-opacity="1"><g transform="translate(150.313576, 199.874987)"><g><path d="M 0.90625 -9.5 C 0.90625 -12.382812 1.914062 -14.765625 3.9375 -16.640625 C 5.957031 -18.515625 8.265625 -19.453125 10.859375 -19.453125 C 13.460938 -19.453125 15.757812 -18.519531 17.75 -16.65625 C 19.75 -14.789062 20.75 -12.414062 20.75 -9.53125 C 20.75 -7.53125 20.234375 -5.753906 19.203125 -4.203125 C 18.171875 -2.648438 16.910156 -1.503906 15.421875 -0.765625 C 13.941406 -0.0351562 12.410156 0.328125 10.828125 0.328125 C 9.242188 0.328125 7.703125 -0.0625 6.203125 -0.84375 C 4.710938 -1.625 3.457031 -2.78125 2.4375 -4.3125 C 1.414062 -5.84375 0.90625 -7.570312 0.90625 -9.5 Z M 8.4375 -6.90625 C 9.207031 -6.320312 9.988281 -6.03125 10.78125 -6.03125 C 11.582031 -6.03125 12.378906 -6.328125 13.171875 -6.921875 C 13.960938 -7.523438 14.359375 -8.414062 14.359375 -9.59375 C 14.359375 -10.78125 13.984375 -11.660156 13.234375 -12.234375 C 12.492188 -12.816406 11.691406 -13.109375 10.828125 -13.109375 C 9.960938 -13.109375 9.15625 -12.804688 8.40625 -12.203125 C 7.664062 -11.597656 7.296875 -10.710938 7.296875 -9.546875 C 7.296875 -8.378906 7.675781 -7.5 8.4375 -6.90625 Z M 8.4375 -6.90625 "/></g></g></g><g fill="#ffffff" fill-opacity="1"><g transform="translate(171.969836, 199.874987)"><g><path d="M 14.203125 -26.9375 C 14.378906 -27.289062 14.695312 -27.539062 15.15625 -27.6875 C 15.613281 -27.832031 16.222656 -27.90625 16.984375 -27.90625 C 17.742188 -27.90625 18.347656 -27.832031 18.796875 -27.6875 C 19.253906 -27.539062 19.570312 -27.285156 19.75 -26.921875 C 19.9375 -26.566406 20.046875 -26.25 20.078125 -25.96875 C 20.117188 -25.6875 20.140625 -25.269531 20.140625 -24.71875 L 20.140625 -3.171875 C 20.140625 -2.617188 20.117188 -2.203125 20.078125 -1.921875 C 20.046875 -1.648438 19.9375 -1.347656 19.75 -1.015625 C 19.382812 -0.359375 18.363281 -0.03125 16.6875 -0.03125 C 15.019531 -0.03125 14.085938 -0.617188 13.890625 -1.796875 C 12.878906 -0.648438 11.472656 -0.078125 9.671875 -0.078125 C 7.503906 -0.078125 5.53125 -1.019531 3.75 -2.90625 C 1.96875 -4.789062 1.078125 -6.988281 1.078125 -9.5 C 1.078125 -12.019531 1.972656 -14.226562 3.765625 -16.125 C 5.554688 -18.03125 7.523438 -18.984375 9.671875 -18.984375 C 11.453125 -18.984375 12.835938 -18.382812 13.828125 -17.1875 L 13.828125 -24.765625 C 13.828125 -25.316406 13.84375 -25.726562 13.875 -26 C 13.914062 -26.28125 14.023438 -26.59375 14.203125 -26.9375 Z M 8.34375 -7.328125 C 8.96875 -6.679688 9.722656 -6.359375 10.609375 -6.359375 C 11.503906 -6.359375 12.242188 -6.679688 12.828125 -7.328125 C 13.421875 -7.972656 13.71875 -8.6875 13.71875 -9.46875 C 13.71875 -10.25 13.429688 -10.976562 12.859375 -11.65625 C 12.296875 -12.332031 11.53125 -12.671875 10.5625 -12.671875 C 9.601562 -12.671875 8.835938 -12.335938 8.265625 -11.671875 C 7.691406 -11.015625 7.40625 -10.285156 7.40625 -9.484375 C 7.40625 -8.691406 7.71875 -7.972656 8.34375 -7.328125 Z M 8.34375 -7.328125 "/></g></g></g><g fill="#ffffff" fill-opacity="1"><g transform="translate(193.553907, 199.874987)"><g><path d="M 19.78125 -11.78125 C 19.78125 -10.300781 19.410156 -9.207031 18.671875 -8.5 C 17.941406 -7.789062 17.128906 -7.4375 16.234375 -7.4375 L 7.6875 -7.4375 C 7.6875 -6.757812 8.082031 -6.191406 8.875 -5.734375 C 9.664062 -5.273438 10.460938 -5.046875 11.265625 -5.046875 C 12.660156 -5.046875 13.753906 -5.191406 14.546875 -5.484375 L 14.9375 -5.625 C 15.519531 -5.894531 16.003906 -6.03125 16.390625 -6.03125 C 17.160156 -6.03125 17.820312 -5.488281 18.375 -4.40625 C 18.6875 -3.75 18.84375 -3.195312 18.84375 -2.75 C 18.84375 -0.601562 16.28125 0.46875 11.15625 0.46875 C 9.375 0.46875 7.789062 0.160156 6.40625 -0.453125 C 5.019531 -1.066406 3.941406 -1.878906 3.171875 -2.890625 C 1.660156 -4.835938 0.90625 -7.015625 0.90625 -9.421875 C 0.90625 -12.453125 1.882812 -14.875 3.84375 -16.6875 C 5.800781 -18.507812 8.25 -19.421875 11.1875 -19.421875 C 14.53125 -19.421875 16.984375 -18.238281 18.546875 -15.875 C 19.367188 -14.625 19.78125 -13.257812 19.78125 -11.78125 Z M 12.15625 -10.71875 C 13.070312 -10.71875 13.53125 -11.101562 13.53125 -11.875 C 13.53125 -12.425781 13.316406 -12.867188 12.890625 -13.203125 C 12.472656 -13.546875 11.875 -13.71875 11.09375 -13.71875 C 10.3125 -13.71875 9.535156 -13.394531 8.765625 -12.75 C 7.992188 -12.113281 7.609375 -11.4375 7.609375 -10.71875 Z M 12.15625 -10.71875 "/></g></g></g><g fill="#1dc4ff" fill-opacity="1"><g transform="translate(214.246837, 199.874987)"><g><path d="M 20.28125 -14.1875 C 21.707031 -12.5 22.421875 -10.609375 22.421875 -8.515625 C 22.367188 -6.109375 21.539062 -4.09375 19.9375 -2.46875 C 18.34375 -0.84375 16.398438 -0.03125 14.109375 -0.03125 L 4.625 -0.03125 C 2.9375 -0.03125 1.945312 -0.488281 1.65625 -1.40625 C 1.507812 -1.8125 1.4375 -2.4375 1.4375 -3.28125 L 1.4375 -23.3125 C 1.4375 -23.894531 1.453125 -24.316406 1.484375 -24.578125 C 1.523438 -24.847656 1.644531 -25.160156 1.84375 -25.515625 C 2.175781 -26.171875 3.113281 -26.5 4.65625 -26.5 L 13.75 -26.5 C 15.96875 -26.5 17.820312 -25.726562 19.3125 -24.1875 C 20.875 -22.625 21.65625 -20.742188 21.65625 -18.546875 C 21.65625 -16.960938 21.195312 -15.507812 20.28125 -14.1875 Z M 16.03125 -8.875 C 16.03125 -9.457031 15.960938 -9.914062 15.828125 -10.25 C 15.691406 -10.582031 15.46875 -10.820312 15.15625 -10.96875 C 14.675781 -11.164062 14.003906 -11.265625 13.140625 -11.265625 C 12.273438 -11.265625 11.625 -11.429688 11.1875 -11.765625 C 10.757812 -12.097656 10.546875 -12.785156 10.546875 -13.828125 C 10.546875 -14.878906 10.765625 -15.570312 11.203125 -15.90625 C 11.648438 -16.25 12.390625 -16.421875 13.421875 -16.421875 C 14.390625 -16.421875 14.96875 -16.675781 15.15625 -17.1875 C 15.226562 -17.445312 15.265625 -17.875 15.265625 -18.46875 C 15.265625 -19.070312 15.066406 -19.492188 14.671875 -19.734375 C 14.273438 -19.984375 13.679688 -20.109375 12.890625 -20.109375 L 7.828125 -20.109375 L 7.828125 -6.421875 L 13.75 -6.421875 C 15.269531 -6.421875 16.03125 -7.238281 16.03125 -8.875 Z M 16.03125 -8.875 "/></g></g></g><g fill="#1dc4ff" fill-opacity="1"><g transform="translate(237.563418, 199.874987)"><g><path d="M 19.78125 -11.78125 C 19.78125 -10.300781 19.410156 -9.207031 18.671875 -8.5 C 17.941406 -7.789062 17.128906 -7.4375 16.234375 -7.4375 L 7.6875 -7.4375 C 7.6875 -6.757812 8.082031 -6.191406 8.875 -5.734375 C 9.664062 -5.273438 10.460938 -5.046875 11.265625 -5.046875 C 12.660156 -5.046875 13.753906 -5.191406 14.546875 -5.484375 L 14.9375 -5.625 C 15.519531 -5.894531 16.003906 -6.03125 16.390625 -6.03125 C 17.160156 -6.03125 17.820312 -5.488281 18.375 -4.40625 C 18.6875 -3.75 18.84375 -3.195312 18.84375 -2.75 C 18.84375 -0.601562 16.28125 0.46875 11.15625 0.46875 C 9.375 0.46875 7.789062 0.160156 6.40625 -0.453125 C 5.019531 -1.066406 3.941406 -1.878906 3.171875 -2.890625 C 1.660156 -4.835938 0.90625 -7.015625 0.90625 -9.421875 C 0.90625 -12.453125 1.882812 -14.875 3.84375 -16.6875 C 5.800781 -18.507812 8.25 -19.421875 11.1875 -19.421875 C 14.53125 -19.421875 16.984375 -18.238281 18.546875 -15.875 C 19.367188 -14.625 19.78125 -13.257812 19.78125 -11.78125 Z M 12.15625 -10.71875 C 13.070312 -10.71875 13.53125 -11.101562 13.53125 -11.875 C 13.53125 -12.425781 13.316406 -12.867188 12.890625 -13.203125 C 12.472656 -13.546875 11.875 -13.71875 11.09375 -13.71875 C 10.3125 -13.71875 9.535156 -13.394531 8.765625 -12.75 C 7.992188 -12.113281 7.609375 -11.4375 7.609375 -10.71875 Z M 12.15625 -10.71875 "/></g></g></g><g fill="#1dc4ff" fill-opacity="1"><g transform="translate(258.245145, 199.874987)"><g><path d="M 12.015625 -19.015625 C 14.421875 -19.015625 16.421875 -18.09375 18.015625 -16.25 C 19.617188 -14.414062 20.421875 -12.175781 20.421875 -9.53125 L 20.421875 -3.171875 C 20.421875 -2.617188 20.40625 -2.203125 20.375 -1.921875 C 20.34375 -1.648438 20.238281 -1.347656 20.0625 -1.015625 C 19.726562 -0.359375 18.789062 -0.03125 17.25 -0.03125 C 15.539062 -0.03125 14.554688 -0.476562 14.296875 -1.375 C 14.148438 -1.78125 14.078125 -2.394531 14.078125 -3.21875 L 14.078125 -9.5625 C 14.078125 -10.550781 13.789062 -11.320312 13.21875 -11.875 C 12.65625 -12.425781 11.898438 -12.703125 10.953125 -12.703125 C 10.003906 -12.703125 9.234375 -12.410156 8.640625 -11.828125 C 8.054688 -11.253906 7.765625 -10.5 7.765625 -9.5625 L 7.765625 -3.171875 C 7.765625 -2.617188 7.742188 -2.203125 7.703125 -1.921875 C 7.671875 -1.648438 7.554688 -1.347656 7.359375 -1.015625 C 7.046875 -0.359375 6.117188 -0.03125 4.578125 -0.03125 C 3.066406 -0.03125 2.140625 -0.359375 1.796875 -1.015625 C 1.628906 -1.367188 1.523438 -1.679688 1.484375 -1.953125 C 1.453125 -2.234375 1.4375 -2.65625 1.4375 -3.21875 L 1.4375 -15.984375 C 1.4375 -16.515625 1.453125 -16.914062 1.484375 -17.1875 C 1.523438 -17.46875 1.644531 -17.78125 1.84375 -18.125 C 2.175781 -18.71875 3.101562 -19.015625 4.625 -19.015625 C 6.09375 -19.015625 6.992188 -18.738281 7.328125 -18.1875 C 7.566406 -17.78125 7.6875 -17.289062 7.6875 -16.71875 C 7.78125 -16.882812 7.992188 -17.125 8.328125 -17.4375 C 8.671875 -17.75 9 -18 9.3125 -18.1875 C 10.132812 -18.738281 11.035156 -19.015625 12.015625 -19.015625 Z M 12.015625 -19.015625 "/></g></g></g><g fill="#1dc4ff" fill-opacity="1"><g transform="translate(280.117973, 199.874987)"><g><path d="M 13.5 -2.375 C 12.582031 -1.175781 11.125 -0.578125 9.125 -0.578125 C 7.132812 -0.578125 5.265625 -1.492188 3.515625 -3.328125 C 1.773438 -5.171875 0.90625 -7.320312 0.90625 -9.78125 C 0.90625 -12.238281 1.78125 -14.390625 3.53125 -16.234375 C 5.289062 -18.085938 7.21875 -19.015625 9.3125 -19.015625 C 10.132812 -19.015625 10.878906 -18.863281 11.546875 -18.5625 C 12.222656 -18.269531 12.6875 -17.992188 12.9375 -17.734375 C 13.1875 -17.484375 13.382812 -17.25 13.53125 -17.03125 C 13.601562 -17.707031 13.847656 -18.21875 14.265625 -18.5625 C 14.691406 -18.914062 15.375 -19.09375 16.3125 -19.09375 C 17.25 -19.09375 17.929688 -19.019531 18.359375 -18.875 C 18.796875 -18.726562 19.101562 -18.476562 19.28125 -18.125 C 19.46875 -17.78125 19.578125 -17.472656 19.609375 -17.203125 C 19.648438 -16.941406 19.671875 -16.535156 19.671875 -15.984375 L 19.671875 -1.046875 C 19.671875 1.722656 18.707031 3.953125 16.78125 5.640625 C 14.851562 7.335938 12.6875 8.1875 10.28125 8.1875 C 8.457031 8.1875 6.710938 7.738281 5.046875 6.84375 C 3.390625 5.957031 2.5625 5.15625 2.5625 4.4375 C 2.5625 3.5 2.921875 2.671875 3.640625 1.953125 C 4.097656 1.441406 4.453125 1.085938 4.703125 0.890625 C 4.960938 0.703125 5.257812 0.609375 5.59375 0.609375 C 5.925781 0.609375 6.273438 0.753906 6.640625 1.046875 C 7.796875 1.929688 9.046875 2.375 10.390625 2.375 C 11.304688 2.375 12.050781 2.015625 12.625 1.296875 C 13.207031 0.578125 13.5 -0.285156 13.5 -1.296875 Z M 7.078125 -9.765625 C 7.078125 -8.984375 7.382812 -8.28125 8 -7.65625 C 8.613281 -7.03125 9.359375 -6.71875 10.234375 -6.71875 C 11.109375 -6.71875 11.832031 -7.035156 12.40625 -7.671875 C 12.988281 -8.304688 13.28125 -9.003906 13.28125 -9.765625 C 13.28125 -10.523438 13.003906 -11.234375 12.453125 -11.890625 C 11.898438 -12.554688 11.15625 -12.890625 10.21875 -12.890625 C 9.28125 -12.890625 8.519531 -12.5625 7.9375 -11.90625 C 7.363281 -11.257812 7.078125 -10.546875 7.078125 -9.765625 Z M 7.078125 -9.765625 "/></g></g></g><g fill="#1dc4ff" fill-opacity="1"><g transform="translate(301.232825, 199.874987)"><g><path d="M 13.78125 -17 C 13.925781 -18.34375 14.878906 -19.015625 16.640625 -19.015625 C 17.578125 -19.015625 18.273438 -18.941406 18.734375 -18.796875 C 19.191406 -18.660156 19.507812 -18.410156 19.6875 -18.046875 C 19.863281 -17.679688 19.96875 -17.359375 20 -17.078125 C 20.039062 -16.804688 20.0625 -16.394531 20.0625 -15.84375 L 20.0625 -3.21875 C 20.0625 -2.65625 20.039062 -2.234375 20 -1.953125 C 19.96875 -1.679688 19.867188 -1.367188 19.703125 -1.015625 C 19.367188 -0.390625 18.546875 -0.078125 17.234375 -0.078125 C 15.921875 -0.078125 15.039062 -0.238281 14.59375 -0.5625 C 14.15625 -0.882812 13.898438 -1.359375 13.828125 -1.984375 C 12.929688 -0.710938 11.441406 -0.078125 9.359375 -0.078125 C 7.285156 -0.078125 5.359375 -1.023438 3.578125 -2.921875 C 1.796875 -4.828125 0.90625 -7.035156 0.90625 -9.546875 C 0.90625 -12.054688 1.800781 -14.253906 3.59375 -16.140625 C 5.382812 -18.035156 7.351562 -18.984375 9.5 -18.984375 C 10.3125 -18.984375 11.050781 -18.835938 11.71875 -18.546875 C 12.394531 -18.265625 12.863281 -17.992188 13.125 -17.734375 C 13.394531 -17.484375 13.613281 -17.238281 13.78125 -17 Z M 7.21875 -9.484375 C 7.21875 -8.691406 7.53125 -7.976562 8.15625 -7.34375 C 8.78125 -6.707031 9.535156 -6.390625 10.421875 -6.390625 C 11.316406 -6.390625 12.054688 -6.710938 12.640625 -7.359375 C 13.234375 -8.015625 13.53125 -8.734375 13.53125 -9.515625 C 13.53125 -10.296875 13.25 -11.019531 12.6875 -11.6875 C 12.125 -12.363281 11.363281 -12.703125 10.40625 -12.703125 C 9.457031 -12.703125 8.6875 -12.363281 8.09375 -11.6875 C 7.507812 -11.019531 7.21875 -10.285156 7.21875 -9.484375 Z M 7.21875 -9.484375 "/></g></g></g><g fill="#1dc4ff" fill-opacity="1"><g transform="translate(322.744706, 199.874987)"><g><path d="M 7.828125 -5.34375 L 17.65625 -5.34375 C 18.445312 -5.34375 19.019531 -5.25 19.375 -5.0625 C 19.738281 -4.882812 19.976562 -4.601562 20.09375 -4.21875 C 20.21875 -3.832031 20.28125 -3.320312 20.28125 -2.6875 C 20.28125 -2.050781 20.21875 -1.539062 20.09375 -1.15625 C 19.976562 -0.769531 19.773438 -0.503906 19.484375 -0.359375 C 19.035156 -0.117188 18.410156 0 17.609375 0 L 4.625 0 C 2.9375 0 1.945312 -0.457031 1.65625 -1.375 C 1.507812 -1.757812 1.4375 -2.375 1.4375 -3.21875 L 1.4375 -23.28125 C 1.4375 -23.832031 1.453125 -24.242188 1.484375 -24.515625 C 1.523438 -24.796875 1.644531 -25.117188 1.84375 -25.484375 C 2.175781 -26.128906 3.113281 -26.453125 4.65625 -26.453125 C 6.34375 -26.453125 7.34375 -26.007812 7.65625 -25.125 C 7.769531 -24.707031 7.828125 -24.082031 7.828125 -23.25 Z M 7.828125 -5.34375 "/></g></g></g></svg>